<?xml version="1.0" encoding="UTF-8"?>
<!-- Generated by Pixelmator Pro 3.6.14 -->
<svg width="1324" height="299" viewBox="0 0 1324 299" xmlns="http://www.w3.org/2000/svg">
    <g id="Group">
        <path id="Path" fill="#ffffff" stroke="none" d="M 1305.400024 92.699982 C 1308 92.699982 1310.400024 93.199982 1312.599976 94.199982 C 1314.900024 95.199982 1316.800049 96.5 1318.5 98.199982 C 1320.199951 99.899994 1321.5 101.899994 1322.5 104.100006 C 1323.5 106.399994 1324 108.799988 1324 111.299988 C 1324 113.799988 1323.5 116.299988 1322.5 118.5 C 1321.5 120.699982 1320.199951 122.699982 1318.5 124.399994 C 1316.800049 126.100006 1314.800049 127.399994 1312.599976 128.399994 C 1310.300049 129.399994 1307.900024 129.899994 1305.400024 129.899994 C 1302.900024 129.899994 1300.400024 129.399994 1298.199951 128.399994 C 1296 127.399994 1294 126.100006 1292.300049 124.399994 C 1290.599976 122.699982 1289.300049 120.799988 1288.300049 118.5 C 1287.300049 116.299988 1286.800049 113.899994 1286.800049 111.299988 C 1286.800049 108.699982 1287.300049 106.299988 1288.300049 104.100006 C 1289.300049 101.799988 1290.599976 99.899994 1292.300049 98.199982 C 1294 96.5 1295.900024 95.199982 1298.199951 94.199982 C 1300.400024 93.199982 1302.800049 92.699982 1305.400024 92.699982 Z M 1305.400024 127.100006 C 1309.800049 127.100006 1313.599976 125.5 1316.699951 122.399994 C 1319.800049 119.299988 1319.300049 119.299988 1320.099976 117.299988 C 1320.900024 115.399994 1321.300049 113.299988 1321.300049 111.100006 C 1321.300049 108.899994 1320.900024 106.899994 1320.099976 104.899994 C 1319.300049 103 1318.099976 101.299988 1316.699951 99.799988 C 1313.599976 96.699982 1309.800049 95.100006 1305.400024 95.100006 C 1301 95.100006 1297.199951 96.699982 1294.199951 99.799988 C 1291.099976 102.899994 1289.5 106.699982 1289.5 111.100006 C 1289.5 115.5 1289.900024 115.299988 1290.699951 117.299988 C 1291.5 119.199982 1292.699951 120.899994 1294.099976 122.399994 C 1297.099976 125.5 1300.900024 127.100006 1305.300049 127.100006 Z M 1314.5 107 C 1314.5 108.199982 1314.099976 109.299988 1313.400024 110.299988 C 1312.699951 111.299988 1311.699951 111.899994 1310.400024 112.299988 C 1312.400024 112.899994 1313.599976 114.5 1314 117.199982 C 1314.099976 117.899994 1314.199951 118.5 1314.199951 119 L 1314.199951 121.5 L 1310.5 121.5 L 1310.5 119.399994 C 1310.5 117.799988 1310.300049 116.699982 1310 116 C 1309.300049 114.600006 1308.099976 113.799988 1306.300049 113.799988 L 1301 113.799988 L 1301 121.399994 L 1297.199951 121.399994 L 1297.199951 100.699982 L 1306 100.699982 C 1308.900024 100.699982 1311.099976 101.299988 1312.400024 102.399994 C 1313.699951 103.5 1314.400024 105 1314.400024 106.799988 Z M 1305.800049 110.799988 C 1307.300049 110.799988 1308.5 110.5 1309.400024 109.899994 C 1310.300049 109.299988 1310.800049 108.5 1310.800049 107.5 C 1310.800049 106.5 1310.400024 105.600006 1309.699951 105 C 1309 104.399994 1307.599976 104.100006 1305.699951 104.100006 L 1301.099976 104.100006 L 1301.099976 110.799988 L 1305.800049 110.799988 Z"/>
        <g id="g1">
            <path id="path1" fill="#ffffff" stroke="none" d="M 433.700012 90.799988 C 451 90.799988 465.099976 96.600006 475.900024 108.199982 C 486.099976 119.299988 491.200012 133.5 491.200012 150.600006 C 491.200012 167.699982 486.099976 181.899994 475.900024 193 C 465.099976 204.600006 451 210.399994 433.700012 210.399994 C 416.400024 210.399994 402.299988 204.600006 391.5 193 C 381.299988 181.899994 376.200012 167.699982 376.200012 150.600006 C 376.200012 133.5 381.299988 119.299988 391.5 108.199982 C 402.299988 96.600006 416.400024 90.799988 433.700012 90.799988 Z M 433.700012 194.699982 C 446.200012 194.699982 456.099976 190.399994 463.400024 181.699982 C 470.400024 173.5 473.799988 163.100006 473.799988 150.600006 C 473.799988 138.100006 470.299988 127.699982 463.400024 119.5 C 456.099976 110.799988 446.200012 106.5 433.700012 106.5 C 421.200012 106.5 411.299988 110.799988 404 119.5 C 397 127.699982 393.599976 138.100006 393.599976 150.600006 C 393.599976 163.100006 397.099976 173.5 404 181.699982 C 411.299988 190.399994 421.200012 194.699982 433.700012 194.699982 Z"/>
            <path id="path2" fill="#ffffff" stroke="none" d="M 531.5 92.600006 L 531.5 110.699982 C 535.700012 105.100006 540.799988 100.399994 546.799988 96.600006 C 552.799988 92.699982 559.700012 90.799988 567.400024 90.799988 C 575.099976 90.799988 581.799988 91.899994 587.299988 94 C 592.900024 96.199982 597.700012 99.399994 601.900024 103.699982 C 611.5 113.100006 616.299988 125.600006 616.299988 141 L 616.299988 208.5 L 598.900024 208.5 L 598.900024 141.5 C 598.900024 130.799988 595.900024 122.299988 589.900024 116 C 583.900024 109.699982 576.099976 106.5 566.5 106.5 C 556.900024 106.5 548.5 109.699982 541.700012 116.199982 C 534.900024 122.799988 531.5 131.399994 531.5 141.699982 L 531.5 208.5 L 514.099976 208.5 L 514.099976 92.600006 L 531.5 92.600006 Z"/>
            <path id="path3" fill="#ffffff" stroke="none" d="M 713.599976 123.699982 C 712.099976 111.600006 702.400024 105.600006 684.5 105.600006 C 666.599976 105.600006 657.699951 111.199982 657.699951 122.299988 C 657.699951 133.399994 659.599976 130.5 663.400024 132.899994 C 667.199951 135.299988 671.900024 137.299988 677.699951 138.799988 C 683.400024 140.299988 689.599976 141.799988 696.400024 143.100006 C 703.099976 144.399994 709.300049 146.299988 715.099976 148.699982 C 720.800049 151.100006 725.599976 154.399994 729.400024 158.600006 C 733.199951 162.799988 735.099976 168.5 735.099976 175.799988 C 735.099976 187.100006 730.800049 195.699982 722.300049 201.699982 C 713.800049 207.699982 702.300049 210.600006 687.699951 210.600006 C 673.099976 210.600006 659.900024 206.699982 650.800049 199 C 642.400024 192.199982 638 183.299988 637.299988 172.299988 L 655.400024 172.299988 C 656.5 183 662.5 190.199982 673.5 193.899994 C 677.5 195.100006 681.5 195.799988 685.400024 195.799988 C 689.300049 195.799988 693 195.600006 696.400024 195.100006 C 699.800049 194.600006 703.099976 193.799988 706.400024 192.5 C 713.800049 189.600006 717.5 184.5 717.5 177.399994 C 717.5 170.299988 715.599976 168.899994 711.800049 166.399994 C 708 163.799988 703.300049 161.799988 697.5 160.100006 C 691.800049 158.5 685.599976 157 678.800049 155.699982 C 672.099976 154.399994 665.800049 152.600006 660.099976 150.299988 C 654.400024 148 649.599976 144.799988 645.800049 140.799988 C 642 136.799988 640.099976 131.199982 640.099976 124.100006 C 640.099976 113.600006 643.900024 105.399994 651.599976 99.600006 C 659.300049 93.799988 670.599976 90.899994 685.599976 90.899994 C 700.599976 90.899994 711 94.299988 719.199951 101.100006 C 726 106.799988 729.900024 114.399994 731 123.799988 L 713.400024 123.799988 Z"/>
            <path id="path4" fill="#ffffff" stroke="none" d="M 774.599976 46.299988 L 774.599976 110.799988 C 778.800049 105.199982 783.900024 100.5 789.900024 96.699982 C 795.900024 92.799988 802.800049 90.899994 810.5 90.899994 C 818.199951 90.899994 824.900024 92 830.400024 94.100006 C 836 96.299988 840.800049 99.5 845 103.799988 C 854.599976 113.199982 859.400024 125.699982 859.400024 141.100006 L 859.400024 208.600006 L 842 208.600006 L 842 141.600006 C 842 130.899994 839 122.399994 833 116.100006 C 827 109.799988 819.199951 106.600006 809.599976 106.600006 C 800 106.600006 791.599976 109.799988 784.800049 116.299988 C 778 122.899994 774.599976 131.5 774.599976 141.799988 L 774.599976 208.600006 L 757.199951 208.600006 L 757.199951 46.299988 L 774.599976 46.299988 Z"/>
            <path id="path5" fill="#ffffff" stroke="none" d="M 978.900024 190 C 969.599976 203.600006 955.800049 210.399994 937.400024 210.399994 C 919 210.399994 907.099976 204.600006 896.599976 193 C 886.400024 181.600006 881.300049 167.399994 881.300049 150.600006 C 881.300049 133.799988 886.400024 119.600006 896.599976 108.199982 C 907.099976 96.600006 921.099976 90.799988 938.599976 90.799988 C 956.099976 90.799988 969.5 97.699982 978.900024 111.399994 L 978.900024 92.600006 L 996.300049 92.600006 L 996.300049 208.5 L 978.900024 208.5 L 978.900024 189.899994 Z M 939.699951 194.699982 C 952.199951 194.699982 962.099976 190.399994 969.400024 181.699982 C 976.400024 173.5 979.800049 163.100006 979.800049 150.600006 C 979.800049 138.100006 976.300049 127.699982 969.400024 119.5 C 962.099976 110.799988 952.199951 106.5 939.699951 106.5 C 927.199951 106.5 917.300049 110.799988 909.599976 119.5 C 902.300049 127.699982 898.699951 138.100006 898.699951 150.600006 C 898.699951 163.100006 902.300049 173.5 909.599976 181.699982 C 917.300049 190.399994 927.400024 194.699982 939.699951 194.699982 Z"/>
            <path id="path6" fill="#ffffff" stroke="none" d="M 1043.800049 111.199982 C 1053.099976 97.600006 1066.900024 90.799988 1085.300049 90.799988 C 1103.699951 90.799988 1115.5 96.600006 1125.900024 108.199982 C 1136.300049 119.600006 1141.400024 133.799988 1141.400024 150.600006 C 1141.400024 167.399994 1136.199951 181.600006 1125.900024 193 C 1115.5 204.600006 1101.599976 210.399994 1084.199951 210.399994 C 1066.800049 210.399994 1053.300049 203.5 1043.800049 189.799988 L 1043.800049 254.5 L 1026.400024 254.5 L 1026.400024 92.600006 L 1043.800049 92.600006 L 1043.800049 111.199982 Z M 1083 106.5 C 1070.5 106.5 1060.599976 110.799988 1053.300049 119.5 C 1046.300049 127.699982 1042.900024 138.100006 1042.900024 150.600006 C 1042.900024 163.100006 1046.400024 173.5 1053.300049 181.699982 C 1060.599976 190.399994 1070.5 194.699982 1083 194.699982 C 1095.5 194.699982 1105.400024 190.399994 1113.099976 181.699982 C 1120.400024 173.5 1124 163.100006 1124 150.600006 C 1124 138.100006 1120.400024 127.699982 1113.099976 119.5 C 1105.400024 110.799988 1095.300049 106.5 1083 106.5 Z"/>
            <path id="path7" fill="#ffffff" stroke="none" d="M 1215.900024 194.699982 C 1231.5 194.699982 1242.699951 188.199982 1249.5 175.199982 L 1268.5 175.199982 C 1264.5 185.699982 1258.099976 194.199982 1249.400024 200.699982 C 1240.699951 207.199982 1229.400024 210.399994 1215.699951 210.399994 C 1202 210.399994 1184 204.600006 1173 193 C 1162.300049 181.699982 1157 167.600006 1157 150.600006 C 1157 133.600006 1162.099976 119.299988 1172.300049 108.199982 C 1183.099976 96.600006 1197.199951 90.799988 1214.5 90.799988 C 1231.800049 90.799988 1245.900024 96.600006 1256.699951 108.199982 C 1266.900024 119.299988 1272 133.5 1272 150.600006 L 1272 157.600006 L 1174.800049 157.600006 C 1176 168.299988 1180.300049 177.100006 1187.599976 184 C 1195 191.100006 1204.400024 194.699982 1215.900024 194.699982 Z M 1214.5 106.5 C 1203.800049 106.5 1194.900024 109.799988 1187.599976 116.5 C 1180.800049 122.799988 1176.599976 131.100006 1175.099976 141.299988 L 1253.900024 141.299988 C 1252.400024 131.100006 1248.199951 122.799988 1241.400024 116.5 C 1234.099976 109.899994 1225.199951 106.5 1214.5 106.5 Z"/>
        </g>
    </g>
    <path id="path8" fill="#ffffff" stroke="none" d="M 178.700012 29.100006 L 128.899994 0.399994 L 0.100006 74.799988 L 0.100006 141.399994 L 51.200012 171.699982 L 51.200012 102.899994 L 178.700012 29.100006 Z"/>
    <path id="path9" fill="#ffffff" stroke="none" d="M 0.100006 163.299988 L 0.100006 224.299988 L 129.600006 299 L 186.299988 266.399994 L 186.299988 203.799988 L 128.899994 241.199982 L 0.100006 163.299988 Z"/>
    <path id="path10" fill="#ffffff" stroke="none" d="M 205.5 106.199982 L 145.299988 71.5 L 198.5 40.600006 L 259 75.200012 L 259 224.299988 L 205.400024 255.199982 L 205.5 106.199982 Z"/>
    <path id="path11" fill="#ffffff" stroke="none" d="M 148.599976 95.100006 L 126.799988 82.5 L 70.200012 115.199982 L 70.200012 144.399994 L 92.5 157.600006 L 92.5 127.600006 L 148.599976 95.100006 Z"/>
    <path id="path12" fill="#ffffff" stroke="none" d="M 70.200012 156.199982 L 70.200012 182.899994 L 128.899994 218.199982 L 153.099976 203.299988 L 153.099976 176.5 L 128.899994 191.899994 L 70.200012 156.199982 Z"/>
    <path id="path13" fill="#ffffff" stroke="none" d="M 162.799988 130.600006 L 136 115.100006 L 159.5 101.399994 L 186.299988 116.799988 L 186.299988 182.299988 L 162.799988 197.100006 L 162.799988 130.600006 Z"/>
</svg>
